<mxfile host="app.diagrams.net" modified="2021-09-06T07:14:08.243Z" agent="5.0 (Macintosh; Intel Mac OS X 10_15_7) AppleWebKit/537.36 (KHTML, like Gecko) Chrome/92.0.4515.159 Safari/537.36" etag="pf43tsga_8ZKhIi0Nq4Y" version="15.0.4" type="github">
  <diagram id="AIX3p-sAqaVESIFTII6M" name="第 1 页">
    <mxGraphModel dx="1580" dy="1000" grid="1" gridSize="10" guides="1" tooltips="1" connect="1" arrows="1" fold="1" page="1" pageScale="1" pageWidth="2339" pageHeight="3300" math="0" shadow="0">
      <root>
        <mxCell id="0" />
        <mxCell id="1" parent="0" />
        <mxCell id="fvGuiGc2wL7ZiQ-JMnJC-1" value="" style="rounded=1;whiteSpace=wrap;html=1;fillColor=#f9f7ed;strokeColor=#36393d;" parent="1" vertex="1">
          <mxGeometry x="300" y="200" width="1420" height="830" as="geometry" />
        </mxCell>
        <mxCell id="fvGuiGc2wL7ZiQ-JMnJC-19" style="edgeStyle=orthogonalEdgeStyle;curved=1;orthogonalLoop=1;jettySize=auto;html=1;entryX=0;entryY=0.5;entryDx=0;entryDy=0;" parent="1" source="fvGuiGc2wL7ZiQ-JMnJC-2" target="fvGuiGc2wL7ZiQ-JMnJC-13" edge="1">
          <mxGeometry relative="1" as="geometry" />
        </mxCell>
        <mxCell id="fvGuiGc2wL7ZiQ-JMnJC-2" value="listener 8080" style="rounded=1;whiteSpace=wrap;html=1;gradientColor=#7ea6e0;fillColor=#dae8fc;strokeColor=#6c8ebf;" parent="1" vertex="1">
          <mxGeometry x="180" y="270" width="240" height="40" as="geometry" />
        </mxCell>
        <mxCell id="fvGuiGc2wL7ZiQ-JMnJC-4" value="listener 15090" style="rounded=1;whiteSpace=wrap;html=1;gradientColor=#7ea6e0;fillColor=#dae8fc;strokeColor=#6c8ebf;" parent="1" vertex="1">
          <mxGeometry x="180" y="650" width="240" height="40" as="geometry" />
        </mxCell>
        <mxCell id="fvGuiGc2wL7ZiQ-JMnJC-5" value="listener 15021" style="rounded=1;whiteSpace=wrap;html=1;gradientColor=#7ea6e0;fillColor=#dae8fc;strokeColor=#6c8ebf;" parent="1" vertex="1">
          <mxGeometry x="180" y="720" width="240" height="40" as="geometry" />
        </mxCell>
        <mxCell id="fvGuiGc2wL7ZiQ-JMnJC-18" style="edgeStyle=orthogonalEdgeStyle;curved=1;orthogonalLoop=1;jettySize=auto;html=1;entryX=0;entryY=0.5;entryDx=0;entryDy=0;" parent="1" source="fvGuiGc2wL7ZiQ-JMnJC-13" target="fvGuiGc2wL7ZiQ-JMnJC-14" edge="1">
          <mxGeometry relative="1" as="geometry" />
        </mxCell>
        <mxCell id="fvGuiGc2wL7ZiQ-JMnJC-13" value="http_connect_manager filter" style="rounded=1;whiteSpace=wrap;html=1;gradientColor=#7ea6e0;fillColor=#dae8fc;strokeColor=#6c8ebf;" parent="1" vertex="1">
          <mxGeometry x="610" y="240" width="270" height="300" as="geometry" />
        </mxCell>
        <mxCell id="fvGuiGc2wL7ZiQ-JMnJC-14" value="" style="rounded=1;whiteSpace=wrap;html=1;gradientColor=#97d077;fillColor=#d5e8d4;strokeColor=#82b366;" parent="1" vertex="1">
          <mxGeometry x="1080" y="240" width="310" height="320" as="geometry" />
        </mxCell>
        <mxCell id="fvGuiGc2wL7ZiQ-JMnJC-15" value="&lt;div style=&quot;font-family: &amp;#34;menlo&amp;#34; , &amp;#34;monaco&amp;#34; , &amp;#34;courier new&amp;#34; , monospace ; line-height: 18px&quot;&gt;&lt;span&gt;http.80&lt;/span&gt;&lt;/div&gt;" style="text;html=1;strokeColor=none;align=center;verticalAlign=middle;whiteSpace=wrap;rounded=0;" parent="1" vertex="1">
          <mxGeometry x="1020" y="260" width="410" height="20" as="geometry" />
        </mxCell>
        <mxCell id="fvGuiGc2wL7ZiQ-JMnJC-22" value="" style="rounded=0;whiteSpace=wrap;html=1;dashed=1;strokeWidth=3;strokeColor=#6c8ebf;fillColor=none;" parent="1" vertex="1">
          <mxGeometry x="1880" y="1080" width="80" height="30" as="geometry" />
        </mxCell>
        <mxCell id="fvGuiGc2wL7ZiQ-JMnJC-24" value="" style="rounded=0;whiteSpace=wrap;html=1;dashed=1;strokeWidth=3;strokeColor=#82b366;fillColor=none;" parent="1" vertex="1">
          <mxGeometry x="1880" y="1160" width="80" height="30" as="geometry" />
        </mxCell>
        <mxCell id="fvGuiGc2wL7ZiQ-JMnJC-25" value="" style="rounded=0;whiteSpace=wrap;html=1;dashed=1;strokeWidth=3;strokeColor=#d79b00;fillColor=none;" parent="1" vertex="1">
          <mxGeometry x="1880" y="1240" width="80" height="30" as="geometry" />
        </mxCell>
        <mxCell id="fvGuiGc2wL7ZiQ-JMnJC-27" value="&lt;font style=&quot;font-size: 23px&quot;&gt;LDS&lt;/font&gt;" style="text;html=1;align=center;verticalAlign=middle;resizable=0;points=[];autosize=1;strokeColor=none;" parent="1" vertex="1">
          <mxGeometry x="2010" y="1085" width="60" height="20" as="geometry" />
        </mxCell>
        <mxCell id="fvGuiGc2wL7ZiQ-JMnJC-28" value="&lt;font style=&quot;font-size: 23px&quot;&gt;RDS&lt;/font&gt;" style="text;html=1;align=center;verticalAlign=middle;resizable=0;points=[];autosize=1;strokeColor=none;" parent="1" vertex="1">
          <mxGeometry x="2010" y="1165" width="60" height="20" as="geometry" />
        </mxCell>
        <mxCell id="fvGuiGc2wL7ZiQ-JMnJC-29" value="&lt;font style=&quot;font-size: 23px&quot;&gt;CDS&lt;/font&gt;" style="text;html=1;align=center;verticalAlign=middle;resizable=0;points=[];autosize=1;strokeColor=none;" parent="1" vertex="1">
          <mxGeometry x="2010" y="1245" width="60" height="20" as="geometry" />
        </mxCell>
        <mxCell id="fvGuiGc2wL7ZiQ-JMnJC-31" value="" style="rounded=0;whiteSpace=wrap;html=1;dashed=1;strokeWidth=3;strokeColor=#6c8ebf;fillColor=none;" parent="1" vertex="1">
          <mxGeometry x="140" y="190" width="810" height="380" as="geometry" />
        </mxCell>
        <mxCell id="fvGuiGc2wL7ZiQ-JMnJC-37" value="" style="rounded=0;whiteSpace=wrap;html=1;dashed=1;strokeWidth=3;strokeColor=#6c8ebf;fillColor=none;" parent="1" vertex="1">
          <mxGeometry x="140" y="640" width="310" height="60" as="geometry" />
        </mxCell>
        <mxCell id="fvGuiGc2wL7ZiQ-JMnJC-38" value="" style="rounded=0;whiteSpace=wrap;html=1;dashed=1;strokeWidth=3;strokeColor=#6c8ebf;fillColor=none;" parent="1" vertex="1">
          <mxGeometry x="140" y="710" width="310" height="60" as="geometry" />
        </mxCell>
        <mxCell id="fvGuiGc2wL7ZiQ-JMnJC-42" value="&lt;div style=&quot;font-family: &amp;quot;menlo&amp;quot; , &amp;quot;monaco&amp;quot; , &amp;quot;courier new&amp;quot; , monospace ; line-height: 18px&quot;&gt;&lt;div style=&quot;font-family: &amp;quot;menlo&amp;quot; , &amp;quot;monaco&amp;quot; , &amp;quot;courier new&amp;quot; , monospace ; line-height: 18px&quot;&gt;&lt;div style=&quot;font-family: &amp;quot;menlo&amp;quot; , &amp;quot;monaco&amp;quot; , &amp;quot;courier new&amp;quot; , monospace ; line-height: 18px&quot;&gt;&lt;span style=&quot;&quot;&gt;outbound|443||edition.cnn.com&lt;/span&gt;&lt;/div&gt;&lt;/div&gt;&lt;/div&gt;" style="rounded=1;whiteSpace=wrap;html=1;gradientColor=#ffd966;fillColor=#fff2cc;strokeColor=#d6b656;" parent="1" vertex="1">
          <mxGeometry x="1620" y="342.5" width="350" height="40" as="geometry" />
        </mxCell>
        <mxCell id="cyqQac6DRZA5pEgaZw5--1" value="&lt;div style=&quot;font-family: &amp;#34;menlo&amp;#34; , &amp;#34;monaco&amp;#34; , &amp;#34;courier new&amp;#34; , monospace ; line-height: 18px&quot;&gt;&lt;div style=&quot;font-family: &amp;#34;menlo&amp;#34; , &amp;#34;monaco&amp;#34; , &amp;#34;courier new&amp;#34; , monospace ; line-height: 18px&quot;&gt;&lt;div style=&quot;font-family: &amp;#34;menlo&amp;#34; , &amp;#34;monaco&amp;#34; , &amp;#34;courier new&amp;#34; , monospace ; line-height: 18px&quot;&gt;&lt;span&gt;outbound|80||edition.cnn.com&lt;/span&gt;&lt;/div&gt;&lt;/div&gt;&lt;/div&gt;" style="rounded=1;whiteSpace=wrap;html=1;gradientColor=#ffd966;fillColor=#fff2cc;strokeColor=#d6b656;" vertex="1" parent="1">
          <mxGeometry x="1620" y="470" width="350" height="40" as="geometry" />
        </mxCell>
        <mxCell id="cyqQac6DRZA5pEgaZw5--2" value="" style="rounded=0;whiteSpace=wrap;html=1;dashed=1;strokeWidth=3;strokeColor=#d79b00;fillColor=none;" vertex="1" parent="1">
          <mxGeometry x="1590" y="457.5" width="410" height="65" as="geometry" />
        </mxCell>
        <mxCell id="fvGuiGc2wL7ZiQ-JMnJC-46" value="" style="rounded=0;whiteSpace=wrap;html=1;dashed=1;strokeWidth=3;strokeColor=#d79b00;fillColor=none;" parent="1" vertex="1">
          <mxGeometry x="1590" y="330" width="410" height="65" as="geometry" />
        </mxCell>
        <mxCell id="fvGuiGc2wL7ZiQ-JMnJC-32" value="" style="rounded=0;whiteSpace=wrap;html=1;dashed=1;strokeWidth=3;strokeColor=#82b366;fillColor=none;" parent="1" vertex="1">
          <mxGeometry x="1020" y="190" width="420" height="390" as="geometry" />
        </mxCell>
      </root>
    </mxGraphModel>
  </diagram>
</mxfile>
